<svg width="48" height="48" viewBox="0 0 48 48" fill="none" xmlns="http://www.w3.org/2000/svg">
<path d="M26.0999 8.28V8.16C26.0999 7.6 26.2799 7.1 26.6399 6.66C26.9999 6.22 27.4599 6 28.0199 6C28.5799 6 29.0799 6.18 29.5199 6.54C29.9599 6.9 30.1999 7.38 30.2399 7.98C30.2799 8.58 30.0999 9.08 29.6999 9.48C29.2999 9.88 28.8199 10.08 28.2599 10.08L27.8999 10.2L28.0199 10.38L27.8999 11.04L27.6599 12.96C27.7399 13.04 27.7799 13.12 27.7799 13.2L27.5399 14.4C27.4599 14.56 27.3799 14.68 27.2999 14.76L27.1799 15.24C27.0199 15.88 26.8799 16.4 26.7599 16.8C26.6399 17.2 26.5399 17.52 26.4599 17.76V18C26.3799 18.4 26.3199 18.72 26.2799 18.96C26.2399 19.2 26.0999 19.6 25.8599 20.16C25.6999 20.48 25.6999 21 25.8599 21.72L25.9799 21.84C25.9799 22.08 26.0799 22.36 26.2799 22.68C26.4799 23 26.5799 23.28 26.5799 23.52C26.6599 25.12 26.5399 26.48 26.2199 27.6L26.4599 28.32C27.4199 28.8 27.6999 29.32 27.2999 29.88L27.8999 30.12C28.8599 30.6 29.5399 31.02 29.9399 31.38C30.3399 31.74 30.7399 32.12 31.1399 32.52C31.4599 32.6 31.6999 32.72 31.8599 32.88L32.2199 33C33.8999 34.12 35.5799 35.48 37.2599 37.08L37.7399 37.44V37.56L37.6199 37.8L37.9799 38.04H38.0999C38.3399 38.2 38.4999 38.28 38.5799 38.28H38.6999C38.7799 38.28 38.8599 38.24 38.9399 38.16L39.1799 38.04C39.3399 37.88 39.4999 37.76 39.6599 37.68H40.1399C40.2199 37.68 40.2199 37.72 40.1399 37.8L39.6599 38.04L39.0599 38.76H39.8999L40.7399 38.88C40.9799 38.8 41.1799 38.72 41.3399 38.64L41.9399 38.28C42.1799 38.2 42.4199 38.28 42.6599 38.52H42.7799C42.8599 38.6 42.8199 38.72 42.6599 38.88L41.2199 40.2C40.8199 40.52 40.4599 40.72 40.1399 40.8L38.5799 41.88C38.4999 41.96 38.4199 41.96 38.3399 41.88L37.9799 41.4L37.7399 40.92L37.4399 40.5L37.0799 40.02L36.7799 39.66L36.5399 39.36L36.0599 39C35.8999 39 35.7399 38.96 35.5799 38.88L34.0199 37.68C33.7799 37.68 33.4999 37.56 33.1799 37.32C31.9799 36.28 31.1799 35.64 30.7799 35.4L30.0599 34.92L28.6199 34.68C28.1399 34.6 27.4999 34.36 26.6999 33.96L25.7399 33.48C25.0999 33.16 24.6599 33 24.4199 33L23.9399 32.76C23.6199 32.68 23.3799 32.6 23.2199 32.52L22.9799 32.28C22.8199 32.28 22.6599 32.32 22.4999 32.4L20.0999 33.6L17.0999 34.92C16.2999 35.56 15.5399 36.08 14.8199 36.48L13.4999 37.08L11.4599 38.52C11.2999 38.68 11.1399 38.68 10.9799 38.52L10.7399 38.76C10.4999 38.84 10.3399 38.88 10.2599 38.88L9.77992 39.12V39.36H9.53992L9.29992 39.72C9.13992 40.04 8.97992 40.22 8.81992 40.26C8.65992 40.3 8.55992 40.36 8.51992 40.44C8.47992 40.52 8.43992 40.58 8.39992 40.62L8.15992 40.86L7.79992 41.1L7.25992 41.04L6.53992 41.16L6.05992 41.28C5.65992 41.36 5.33992 41.3 5.09992 41.1C4.85992 40.9 4.65992 40.6 4.49992 40.2C4.33992 39.96 4.41992 39.76 4.73992 39.6L4.85992 39.48C4.93992 39.4 5.05992 39.36 5.21992 39.36H5.93992L6.89992 39L7.37992 38.88C7.37992 38.72 7.41992 38.6 7.49992 38.52C7.57992 38.44 7.69992 38.4 7.85992 38.4V38.28C7.77992 38.12 7.73992 37.96 7.73992 37.8C7.65992 37.64 7.63992 37.52 7.67992 37.44C7.71992 37.36 7.75992 37.32 7.79992 37.32H7.85992L7.97992 37.68C8.05992 38.08 8.17992 38.2 8.33992 38.04L8.45992 37.8C8.53992 37.64 8.65992 37.56 8.81992 37.56L9.05992 37.8L9.29992 37.56L9.17992 37.44C9.17992 37.36 9.21992 37.32 9.29992 37.32L9.77992 36.84C10.1799 36.36 10.6599 35.92 11.2199 35.52C12.3399 34.64 13.5399 33.96 14.8199 33.48C15.2199 33.08 15.6599 32.88 16.1399 32.88C16.4599 32.32 16.9399 31.72 17.5799 31.08C18.1399 30.68 18.5399 30.4 18.7799 30.24C18.9399 29.92 19.1399 29.76 19.3799 29.76H19.4999L19.7399 29.52C19.8999 29.44 20.0199 29.36 20.0999 29.28V28.68C20.0999 28.28 20.1399 27.96 20.2199 27.72C20.2999 27.48 20.4999 27.36 20.8199 27.36L21.2999 26.88C21.1399 26.56 21.0599 26.2 21.0599 25.8H20.9399C20.7799 25.56 20.6999 25.32 20.6999 25.08C20.4599 24.68 20.2999 24.36 20.2199 24.12H19.8599C19.7799 24.36 19.5799 24.52 19.2599 24.6L19.1399 24.84C18.8199 25.4 18.5399 25.82 18.2999 26.1C18.0599 26.38 17.6199 26.72 16.9799 27.12C16.5799 27.52 16.2999 27.96 16.1399 28.44C16.0599 28.68 16.0599 28.92 16.1399 29.16L16.0199 29.4H16.1399C16.1399 29.56 16.1799 29.64 16.2599 29.64H16.3799C16.5399 29.72 16.6199 29.82 16.6199 29.94C16.6199 30.06 16.4999 30.1 16.2599 30.06C16.0199 30.02 15.8399 29.94 15.7199 29.82C15.5999 29.7 15.4999 29.64 15.4199 29.64L15.0599 30C14.8999 30.24 14.7399 30.34 14.5799 30.3C14.4199 30.26 14.3799 30.2 14.4599 30.12L14.5799 30C14.6599 29.84 14.6599 29.76 14.5799 29.76L13.6199 30C13.5399 30.08 13.4399 30.08 13.3199 30C13.1999 29.92 13.2199 29.84 13.3799 29.76L13.9799 29.52C13.9799 29.44 13.9399 29.4 13.8599 29.4C13.5399 29.56 13.2199 29.6 12.8999 29.52L12.2999 29.4L12.1799 29.28C12.1799 29.2 12.2199 29.16 12.2999 29.16C12.6199 29.24 13.0199 29.2 13.4999 29.04L14.3399 28.68L15.2999 27.6L15.4199 27.36C15.7399 26.72 16.0799 26.14 16.4399 25.62C16.7999 25.1 17.1799 24.68 17.5799 24.36L17.6999 23.88C17.8599 23.56 18.0199 23.28 18.1799 23.04C18.3399 22.8 18.5399 22.48 18.7799 22.08L19.1399 21.6C19.4599 21.12 19.8199 20.88 20.2199 20.88L20.5799 20.52C20.6599 20.44 20.6999 20.32 20.6999 20.16L20.9399 19.92L20.8199 19.8C20.3399 19.4 20.0999 19.04 20.0999 18.72C20.0199 18.16 20.1999 17.68 20.6399 17.28C21.0799 16.88 21.5199 16.7 21.9599 16.74C22.3999 16.78 22.7399 16.92 22.9799 17.16L23.2199 17.4C23.2999 17.4 23.3399 17.44 23.3399 17.52L23.8199 17.76V18.12C23.9799 18.28 24.0599 18.4 24.0599 18.48C24.2199 18.24 24.4599 17.96 24.7799 17.64L25.3799 15.72C25.3799 15.4 25.4599 15.08 25.6199 14.76L25.8599 14.4V14.16L26.2199 12.72H26.4599L26.8199 11.28C26.8999 11.04 26.8999 10.76 26.8199 10.44L26.3399 9.24L26.0999 8.28Z" fill="white"/>
</svg>
